<svg data-v-423bf9ae="" xmlns="http://www.w3.org/2000/svg" viewBox="0 0 419 90" class="iconLeft"><!----><!----><!----><g data-v-423bf9ae="" id="59839172-f6b8-41d2-b493-83f3d204e8f4" fill="#23073F" transform="matrix(5.420053883026467,0,0,5.420053883026467,111.26828293052819,-6.62601623705816)"><path d="M0.84 10.98C0.84 13.27 2.48 15.06 5.25 15.06C8.02 15.06 9.66 13.27 9.66 10.98C9.66 8.69 8.02 6.90 5.25 6.90C2.48 6.90 0.84 8.69 0.84 10.98ZM2.63 10.98C2.63 9.30 3.63 8.15 5.25 8.15C6.85 8.15 7.87 9.30 7.87 10.98C7.87 12.66 6.85 13.82 5.25 13.82C3.63 13.82 2.63 12.66 2.63 10.98ZM13.65 14.87L15.48 14.87L17.58 8.36L19.67 14.87L21.52 14.87L24.51 7.10L22.58 7.10L20.51 13.37L18.59 7.10L16.56 7.10L14.66 13.37L12.57 7.10L10.64 7.10ZM25.91 14.87L27.59 14.87L27.59 3.99C27.59 3.99 26.81 4.14 25.91 4.14ZM36.39 14.87L38.07 14.87L38.07 10.05C38.07 8.09 37.11 6.90 34.80 6.90C31.84 6.90 31.64 9.41 31.64 9.41L30.93 7.10L30.11 7.10L30.11 14.87L31.79 14.87L31.79 10.25C31.79 9.77 32.07 8.15 34.19 8.15C35.59 8.15 36.39 8.78 36.39 10.08ZM48.66 12.28L46.93 11.77C46.93 11.77 46.93 13.82 44.69 13.82C43.13 13.82 41.99 12.82 41.96 11.05L48.45 11.19C48.45 11.19 48.85 6.90 44.48 6.90C41.73 6.90 40.17 8.65 40.17 10.98C40.17 13.61 42.21 15.06 44.48 15.06C48.17 15.06 48.66 12.28 48.66 12.28ZM46.68 10.12L42.03 10.19C42.27 8.96 43.08 8.15 44.38 8.15C46.58 8.15 46.68 10.12 46.68 10.12ZM49.78 8.15L51.52 8.15L51.52 12.24C51.52 14.18 52.54 15.06 54.21 15.06C55.93 15.06 56.67 13.94 56.67 13.94L56.34 12.70C56.34 12.70 55.92 13.82 54.56 13.82C53.66 13.82 53.20 13.27 53.20 12.05L53.20 8.15L56.39 8.15L56.39 7.10L53.20 7.10L53.20 4.21L51.59 5.33L51.59 7.10L49.78 7.10Z"></path></g><defs data-v-423bf9ae=""><linearGradient data-v-423bf9ae="" gradientTransform="rotate(25)" id="c36194a0-2634-4be6-a4b7-1bea2473b677" x1="0%" y1="0%" x2="100%" y2="0%"><stop data-v-423bf9ae="" offset="0%" style="stop-color: rgb(233, 13, 202); stop-opacity: 1;"></stop><stop data-v-423bf9ae="" offset="100%" style="stop-color: rgb(21, 54, 241); stop-opacity: 1;"></stop></linearGradient></defs><g data-v-423bf9ae="" id="dcf33067-1366-4429-9b84-d2cb9d1c88b9" transform="matrix(2.994410458179972,0,0,2.994410458179972,0.08943266912044834,-1.9385669710569857)" stroke="none" fill="url(#c36194a0-2634-4be6-a4b7-1bea2473b677)"><path d="M17.572 23.933l4.106 7.095L32 13.189h-8.981V7.582L11.51.972 0 7.582v13.222l11.51 6.611 6.062-3.482zm10.96-8.744l-6.855 11.846-6.855-11.846h13.71z"></path></g><!----></svg>